<svg width="469" height="118" viewBox="0 0 469 118" fill="none" xmlns="http://www.w3.org/2000/svg">
<path d="M41.457 11.144C42.993 11.144 44.0597 12.4667 44.657 15.112C44.657 16.648 41.969 18.7813 36.593 21.512C29.937 27.3147 24.9877 37.2987 21.745 51.464V53.768C29.169 50.0987 34.5023 47.88 37.745 47.112C38.769 47.112 40.0063 48.008 41.457 49.8V52.232C41.457 53.1707 37.7023 55.048 30.193 57.864C24.561 60.936 21.745 62.6853 21.745 63.112V64.264C21.745 69.0427 24.817 73.1813 30.961 76.68L35.313 77.448C38.129 77.448 42.3103 75.6987 47.857 72.2H49.393C51.185 73.0533 52.081 74.2907 52.081 75.912V76.68C46.7903 82.2267 40.945 85 34.545 85C25.4143 85 18.7583 78.856 14.577 66.568L6.513 68.232C2.58767 67.6347 0.625 66.3547 0.625 64.392C0.625 62.4293 1.777 61.0213 4.081 60.168L7.025 60.68C11.4623 59.4 13.681 58.4613 13.681 57.864C13.681 43.3573 19.185 29.9173 30.193 17.544C35.7397 13.2773 39.4943 11.144 41.457 11.144ZM79.305 55.432C85.0223 31.2827 93.001 13.32 103.241 1.544L105.673 1.032C107.806 1.8 108.873 3.03733 108.873 4.744V5.51199C98.0357 18.9947 90.057 39.3467 84.937 66.568C89.3743 73.5653 93.897 77.064 98.505 77.064H102.473L108.105 75.912H108.873C110.238 76.5093 110.921 77.576 110.921 79.112V79.88C110.921 82.5253 107.593 84.232 100.937 85C95.4757 85 89.8437 82.3547 84.041 77.064H83.273C82.4197 86.536 81.5237 99.336 80.585 115.464C79.1343 116.829 77.897 117.512 76.873 117.512C74.569 116.659 73.417 115.336 73.417 113.544C73.5023 100.317 74.6543 85.2133 76.873 68.232C71.241 59.1013 65.0117 43.6133 58.185 21.768C58.185 20.9147 59.081 19.7627 60.873 18.312H62.921C64.3717 18.312 69.0223 29.7893 76.873 52.744L78.921 55.432H79.305ZM142.737 0.903999H144.785C158.694 0.903999 167.612 5.93866 171.537 16.008L171.921 20.104V21.384C171.921 31.2827 165.905 40.456 153.873 48.904C150.972 49.7573 149.521 50.696 149.521 51.72C152.934 64.776 154.641 75.4427 154.641 83.72V85.384C154.641 88.7973 153.233 90.504 150.417 90.504C148.284 90.248 147.217 89.1813 147.217 87.304V84.104C147.217 74.2907 145.425 63.624 141.841 52.104C134.929 51.5067 131.089 49.6293 130.321 46.472V45.704C130.321 44.168 131.516 42.9733 133.905 42.12L139.537 44.04V43.784C136.636 31.1547 135.185 22.6213 135.185 18.184C135.185 15.7093 136.636 14.472 139.537 14.472C142.182 14.472 143.505 18.9947 143.505 28.04L147.217 43.272C153.361 41.224 158.14 37.2133 161.553 31.24C163.345 27.8267 164.241 24.7973 164.241 22.152V20.488C164.241 13.4907 158.268 9.52266 146.321 8.584H141.073C129.382 9.864 123.537 12.6373 123.537 16.904V17.672C123.537 18.952 124.22 20.9573 125.585 23.688C125.585 25.5653 124.092 26.76 121.105 27.272C117.692 25.6507 115.985 22.3227 115.985 17.288C115.985 7.90133 124.902 2.43999 142.737 0.903999ZM199.195 12.168H199.707C210.032 14.0453 215.195 19.0373 215.195 27.144V29.448C215.195 38.408 209.478 47.3253 198.043 56.2V56.712C216.56 73.2667 229.36 81.544 236.443 81.544C237.723 82.4827 238.363 83.6347 238.363 85C238.363 86.9627 236.912 88.2 234.011 88.712C226.928 88.712 213.702 80.1787 194.331 63.112L188.827 60.168H188.443C190.832 69.7253 192.027 77.1067 192.027 82.312C192.027 84.5307 190.662 86.1093 187.931 87.048C184.006 87.048 181.531 77.448 180.507 58.248C177.776 49.3733 176.411 42.2907 176.411 37V35.848C176.411 28.0827 178.118 24.2 181.531 24.2L183.963 25.48H184.731C188.827 16.6053 193.648 12.168 199.195 12.168ZM188.827 46.344L188.443 51.08C196.379 51.08 202.779 44.5093 207.643 31.368V26.632C207.643 22.8773 205.083 20.616 199.963 19.848H199.195C193.819 19.848 190.363 28.68 188.827 46.344ZM282.207 11.144C283.743 11.144 284.81 12.4667 285.407 15.112C285.407 16.648 282.719 18.7813 277.343 21.512C270.687 27.3147 265.738 37.2987 262.495 51.464V53.768C269.919 50.0987 275.252 47.88 278.495 47.112C279.519 47.112 280.756 48.008 282.207 49.8V52.232C282.207 53.1707 278.452 55.048 270.943 57.864C265.311 60.936 262.495 62.6853 262.495 63.112V64.264C262.495 69.0427 265.567 73.1813 271.711 76.68L276.063 77.448C278.879 77.448 283.06 75.6987 288.607 72.2H290.143C291.935 73.0533 292.831 74.2907 292.831 75.912V76.68C287.54 82.2267 281.695 85 275.295 85C266.164 85 259.508 78.856 255.327 66.568L247.263 68.232C243.338 67.6347 241.375 66.3547 241.375 64.392C241.375 62.4293 242.527 61.0213 244.831 60.168L247.775 60.68C252.212 59.4 254.431 58.4613 254.431 57.864C254.431 43.3573 259.935 29.9173 270.943 17.544C276.49 13.2773 280.244 11.144 282.207 11.144ZM337.591 9.224H338.871C341.26 9.224 342.626 10.632 342.967 13.448C342.967 15.9227 339.596 17.16 332.855 17.16C322.018 21.256 314.722 27.2293 310.967 35.08L310.071 38.792V39.56C310.071 43.3147 312.588 45.192 317.623 45.192L331.703 44.424C341.175 44.424 347.575 49.032 350.903 58.248L351.671 62.728C351.671 71.6027 344.503 79.7093 330.167 87.048C325.9 88.2427 322.146 89.0533 318.903 89.48C310.199 89.48 304.055 84.5733 300.471 74.76C299.447 71.432 298.935 68.0613 298.935 64.648C298.935 63.624 299.746 62.5573 301.367 61.448H302.903C305.548 61.448 306.871 64.8187 306.871 71.56C309.09 78.216 312.588 81.544 317.367 81.544H320.823C327.735 81.544 334.562 77.5333 341.303 69.512C343.095 66.952 343.991 64.1787 343.991 61.192C343.991 57.0107 340.706 54.0667 334.135 52.36H333.623L316.855 52.744C307.554 51.6347 302.903 47.7947 302.903 41.224L302.391 39.56C302.391 30.7707 308.962 22.2373 322.103 13.96C327.82 10.8027 332.983 9.224 337.591 9.224ZM395.841 9.224H397.121C399.51 9.224 400.876 10.632 401.217 13.448C401.217 15.9227 397.846 17.16 391.105 17.16C380.268 21.256 372.972 27.2293 369.217 35.08L368.321 38.792V39.56C368.321 43.3147 370.838 45.192 375.873 45.192L389.953 44.424C399.425 44.424 405.825 49.032 409.153 58.248L409.921 62.728C409.921 71.6027 402.753 79.7093 388.417 87.048C384.15 88.2427 380.396 89.0533 377.153 89.48C368.449 89.48 362.305 84.5733 358.721 74.76C357.697 71.432 357.185 68.0613 357.185 64.648C357.185 63.624 357.996 62.5573 359.617 61.448H361.153C363.798 61.448 365.121 64.8187 365.121 71.56C367.34 78.216 370.838 81.544 375.617 81.544H379.073C385.985 81.544 392.812 77.5333 399.553 69.512C401.345 66.952 402.241 64.1787 402.241 61.192C402.241 57.0107 398.956 54.0667 392.385 52.36H391.873L375.105 52.744C365.804 51.6347 361.153 47.7947 361.153 41.224L360.641 39.56C360.641 30.7707 367.212 22.2373 380.353 13.96C386.07 10.8027 391.233 9.224 395.841 9.224Z" fill="#DE831A"/>
<path d="M444.125 6.625C451.792 6.625 457.75 10.1667 462 17.25C466.167 24.3333 468.25 34.0833 468.25 46.5C468.25 59.25 466.167 69.0833 462 76C457.833 82.9167 451.875 86.375 444.125 86.375C436.375 86.375 430.417 82.9167 426.25 76C422.083 69.0833 420 59.25 420 46.5C420 34.0833 422.125 24.3333 426.375 17.25C430.542 10.1667 436.458 6.625 444.125 6.625ZM444.125 14.25C439.375 14.25 435.667 17.125 433 22.875C430.333 28.7083 429 36.5833 429 46.5C429 51.9167 429.375 56.7083 430.125 60.875L456.625 26.625C455.375 22.625 453.708 19.5417 451.625 17.375C449.458 15.2917 446.958 14.25 444.125 14.25ZM444.125 78.75C448.875 78.75 452.583 75.9583 455.25 70.375C457.917 64.7917 459.25 56.8333 459.25 46.5C459.25 41.6667 458.958 37.5 458.375 34L431.875 67.75C434.542 75.0833 438.625 78.75 444.125 78.75Z" fill="white"/>
</svg>
